<?xml version="1.0" standalone="no"?><!DOCTYPE svg PUBLIC "-//W3C//DTD SVG 1.1//EN" "http://www.w3.org/Graphics/SVG/1.1/DTD/svg11.dtd"><svg xmlns="http://www.w3.org/2000/svg" width="500" height="300" viewBox="0 0 500 300"><g class="sankey" transform="translate(130,25)"><g class="groups"><g class="group" transform="translate(0,26.5)" style="display: inline;"><rect x="-10" y="-20" width="21" height="242" style="fill: rgb(238, 238, 238); stroke: rgb(187, 187, 187); stroke-width: 0.5;"/><text x="-10" y="-25" style="fill: rgb(153, 153, 153);">True</text></g><g class="group" transform="translate(239,26.5)" style="display: inline;"><rect x="-10" y="-20" width="21" height="242" style="fill: rgb(238, 238, 238); stroke: rgb(187, 187, 187); stroke-width: 0.5;"/><text x="-10" y="-25" style="fill: rgb(153, 153, 153);">Predicted</text></g></g><g class="links"><g class="link" style="opacity: 0.8;"><path d="M1,82.44444444444444 A299.0245924090063 299.0245924090063 0.1483472789538396 0 1 45.196960990254006,85.72871916815727 L195.16570565866795,108.14082317123919 A296.5708887053026 296.5708887053026 0.1483472789538396 0 0 239,111.39814814814815 L239,113.85185185185185 A299.0245924090063 299.0245924090063 0.1483472789538396 0 1 194.803039009746,110.56757712813902 L44.83429434133203,88.1554731250571 A296.5708887053026 296.5708887053026 0.1483472789538396 0 0 1,84.89814814814814 Z" style="fill: rgb(0, 165, 93);"/><title>Sst → Pvalb
Sst
1.00</title><text class="label" dy="0.35em" x="5" y="83.67129629629629"/></g><g class="link" style="opacity: 0.8;"><path d="M1,118.75925925925925 A119.98488354607295 119.98488354607295 0.3864128259692996 0 0 46.218483055736634,109.91240282228495 L192.85679412860034,50.24999781971064 A122.43858724977665 122.43858724977665 0.3864128259692996 0 1 239,41.22222222222222 L239,43.67592592592593 A119.98488354607295 119.98488354607295 0.3864128259692996 0 0 193.78151694426336,52.52278236290023 L47.14320587139965,112.18518736547455 A122.43858724977665 122.43858724977665 0.3864128259692996 0 1 1,121.21296296296295 Z" style="fill: rgb(0, 164, 187);"/><title>Pvalb → Htr3a
Pvalb
1.00</title><text class="label" dy="0.35em" x="5" y="119.9861111111111"/></g><g class="link" style="opacity: 0.8;"><path d="M1,169.7962962962963 A254.77733532342842 254.77733532342842 0.1731945789679772 0 0 44.90578043799765,165.9846419705633 L194.67137278115368,139.78354870376856 A257.2310390271321 257.2310390271321 0.1731945789679772 0 1 239,135.9351851851852 L239,138.38888888888889 A254.77733532342842 254.77733532342842 0.1731945789679772 0 0 195.09421956200234,142.2005432146219 L45.328627218846336,168.40163648141663 A257.2310390271321 257.2310390271321 0.1731945789679772 0 1 1,172.25 Z" style="fill: rgb(215, 0, 0);"/><title>Pyr → Pvalb
Pyr
1.00</title><text class="label" dy="0.35em" x="5" y="171.02314814814815"/></g><g class="link" style="opacity: 0.8;"><path d="M1,70.17592592592592 A253.55048347157657 253.55048347157657 0.1731945789679772 0 0 44.69435704757331,66.38262619661812 L194.45994939072932,40.18153292982335 A258.45789087898396 258.45789087898396 0.1731945789679772 0 1 239,36.31481481481482 L239,41.22222222222222 A253.55048347157657 253.55048347157657 0.1731945789679772 0 0 195.3056429524267,45.01552195153003 L45.54005060927067,71.2166152183248 A258.45789087898396 258.45789087898396 0.1731945789679772 0 1 1,75.08333333333334 Z" style="fill: rgb(0, 165, 93);"/><title>Sst → Htr3a
Sst
2.00</title><text class="label" dy="0.35em" x="5" y="72.62962962962963"/></g><g class="link" style="opacity: 0.8;"><path d="M1,36.31481481481482 A259.6847427308358 259.6847427308358 0.1731945789679772 0 1 45.751473999695015,40.19988752624853 L195.51706634285102,66.4009807930433 A252.32363161972472 252.32363161972472 0.1731945789679772 0 0 239,70.17592592592592 L239,77.53703703703704 A259.6847427308358 259.6847427308358 0.1731945789679772 0 1 194.248526000305,73.65196432560332 L44.48293365714897,47.45087105880856 A252.32363161972472 252.32363161972472 0.1731945789679772 0 0 1,43.67592592592593 Z" style="fill: rgb(0, 244, 0);"/><title>Htr3a → Sst
Htr3a
3.00</title><text class="label" dy="0.35em" x="5" y="39.995370370370374"/></g><g class="link" style="opacity: 0.8;"><path d="M1,84.89814814814815 A121.89896062430068 121.89896062430068 0.3978483752957791 0 1 48.22800485343546,94.41885394150441 L194.62395212389853,155.9431098450485 A114.53784951318957 114.53784951318957 0.3978483752957791 0 0 239,164.88888888888889 L239,172.24999999999997 A121.89896062430068 121.89896062430068 0.3978483752957791 0 1 191.77199514656454,162.72929420664374 L45.37604787610149,101.20503830309963 A114.53784951318957 114.53784951318957 0.3978483752957791 0 0 1,92.25925925925927 Z" style="fill: rgb(0, 165, 93);"/><title>Sst → Pyr
Sst
3.00</title><text class="label" dy="0.35em" x="5" y="88.57870370370371"/></g><g class="link" style="opacity: 0.8;"><path d="M1,75.08333333333333 A1003.6805555555555 1003.6805555555555 0.010799304293892087 0 1 11.838841050515946,75.14185987348796 L228.24065228314174,77.47893973740385 A996.3194444444445 996.3194444444445 0.010799304293892087 0 0 239,77.53703703703704 L239,84.89814814814815 A1003.6805555555555 1003.6805555555555 0.010799304293892087 0 1 228.16115894948405,84.83962160799352 L11.759347716858247,82.50254174407763 A996.3194444444445 996.3194444444445 0.010799304293892087 0 0 1,82.44444444444444 Z" style="fill: rgb(0, 165, 93);"/><title>Sst → Sst
Sst
3.00</title><text class="label" dy="0.35em" x="5" y="78.76388888888889"/></g><g class="link" style="opacity: 0.8;"><path d="M1,26.5 A0 0 0 0 0 1,26.5 L239,26.5 A0 0 0 0 0 239,26.5 L239,36.31481481481482 A0 0 0 0 0 239,36.31481481481482 L1,36.31481481481482 A0 0 0 0 0 1,36.31481481481482 Z" style="fill: rgb(0, 244, 0);"/><title>Htr3a → Htr3a
Htr3a
4.00</title><text class="label" dy="0.35em" x="5" y="31.40740740740741"/></g><g class="link" style="opacity: 0.8;"><path d="M1,121.21296296296295 A988.9583333333334 988.9583333333334 0.03651961811393489 0 0 37.108353235061905,120.55355803949917 L202.08535111654615,114.52598121641259 A1011.0416666666666 1011.0416666666666 0.03651961811393489 0 1 239,113.85185185185186 L239,135.9351851851852 A988.9583333333334 988.9583333333334 0.03651961811393489 0 0 202.8916467649381,136.594590108649 L37.91464888345384,142.62216693173556 A1011.0416666666666 1011.0416666666666 0.03651961811393489 0 1 1,143.29629629629628 Z" style="fill: rgb(0, 164, 187);"/><title>Pvalb → Pvalb
Pvalb
9.00</title><text class="label" dy="0.35em" x="5" y="132.25462962962962"/></g><g class="link" style="opacity: 0.8;"><path d="M1,172.25 A0 0 0 0 0 1,172.25 L239,172.25 A0 0 0 0 0 239,172.25 L239,238.5 A0 0 0 0 0 239,238.5 L1,238.5 A0 0 0 0 0 1,238.5 Z" style="fill: rgb(215, 0, 0);"/><title>Pyr → Pyr
Pyr
27.0</title><text class="label" dy="0.35em" x="5" y="205.375"/></g></g><g class="nodes"><g class="node" transform="translate(0,26.5)"><title>Htr3a</title><line x1="0" x2="0" y1="0" y2="17.175925925925924" style="display: inline; stroke: rgb(0, 0, 0);"/><rect class="node-body" width="1" height="17.175925925925924" style="fill: none;"/><text class="node-value" dy=".35em" text-anchor="middle" transform="translate(0.5,8.587962962962962) rotate(-90)" style="display: none;"/><text class="node-title" dy=".35em" text-anchor="end" transform="translate(-4,8.587962962962962)" style="display: inline;">Htr3a</text><rect class="node-click-target" x="-5" y="-5" width="10" height="22.175925925925924" style="fill: none; visibility: hidden; pointer-events: all;"/></g><g class="node" transform="translate(0,70.17592592592592)"><title>Sst</title><line x1="0" x2="0" y1="0" y2="22.08333333333333" style="display: inline; stroke: rgb(0, 0, 0);"/><rect class="node-body" width="1" height="22.08333333333333" style="fill: none;"/><text class="node-value" dy=".35em" text-anchor="middle" transform="translate(0.5,11.041666666666664) rotate(-90)" style="display: none;"/><text class="node-title" dy=".35em" text-anchor="end" transform="translate(-4,11.041666666666664)" style="display: inline;">Sst</text><rect class="node-click-target" x="-5" y="-5" width="10" height="27.08333333333333" style="fill: none; visibility: hidden; pointer-events: all;"/></g><g class="node" transform="translate(0,118.75925925925925)"><title>Pvalb</title><line x1="0" x2="0" y1="0" y2="24.537037037037052" style="display: inline; stroke: rgb(0, 0, 0);"/><rect class="node-body" width="1" height="24.537037037037052" style="fill: none;"/><text class="node-value" dy=".35em" text-anchor="middle" transform="translate(0.5,12.268518518518526) rotate(-90)" style="display: none;"/><text class="node-title" dy=".35em" text-anchor="end" transform="translate(-4,12.268518518518526)" style="display: inline;">Pvalb</text><rect class="node-click-target" x="-5" y="-5" width="10" height="29.537037037037052" style="fill: none; visibility: hidden; pointer-events: all;"/></g><g class="node" transform="translate(0,169.7962962962963)"><title>Pyr</title><line x1="0" x2="0" y1="0" y2="68.7037037037037" style="display: inline; stroke: rgb(0, 0, 0);"/><rect class="node-body" width="1" height="68.7037037037037" style="fill: none;"/><text class="node-value" dy=".35em" text-anchor="middle" transform="translate(0.5,34.35185185185185) rotate(-90)" style="display: none;"/><text class="node-title" dy=".35em" text-anchor="end" transform="translate(-4,34.35185185185185)" style="display: inline;">Pyr</text><rect class="node-click-target" x="-5" y="-5" width="10" height="73.7037037037037" style="fill: none; visibility: hidden; pointer-events: all;"/></g><g class="node" transform="translate(239,26.5)"><title>Htr3a</title><line x1="0" x2="0" y1="0" y2="17.175925925925924" style="display: inline; stroke: rgb(0, 0, 0);"/><rect class="node-body" width="1" height="17.175925925925924" style="fill: none;"/><text class="node-value" dy=".35em" text-anchor="middle" transform="translate(0.5,8.587962962962962) rotate(-90)" style="display: none;"/><text class="node-title" dy=".35em" text-anchor="start" transform="translate(5,8.587962962962962)" style="display: inline;">Htr3a</text><rect class="node-click-target" x="-5" y="-5" width="10" height="22.175925925925924" style="fill: none; visibility: hidden; pointer-events: all;"/></g><g class="node" transform="translate(239,70.17592592592592)"><title>Sst</title><line x1="0" x2="0" y1="0" y2="14.722222222222229" style="display: inline; stroke: rgb(0, 0, 0);"/><rect class="node-body" width="1" height="14.722222222222229" style="fill: none;"/><text class="node-value" dy=".35em" text-anchor="middle" transform="translate(0.5,7.361111111111114) rotate(-90)" style="display: none;"/><text class="node-title" dy=".35em" text-anchor="start" transform="translate(5,7.361111111111114)" style="display: inline;">Sst</text><rect class="node-click-target" x="-5" y="-5" width="10" height="19.72222222222223" style="fill: none; visibility: hidden; pointer-events: all;"/></g><g class="node" transform="translate(239,111.39814814814815)"><title>Pvalb</title><line x1="0" x2="0" y1="0" y2="26.990740740740733" style="display: inline; stroke: rgb(0, 0, 0);"/><rect class="node-body" width="1" height="26.990740740740733" style="fill: none;"/><text class="node-value" dy=".35em" text-anchor="middle" transform="translate(0.5,13.495370370370367) rotate(-90)" style="display: none;"/><text class="node-title" dy=".35em" text-anchor="start" transform="translate(5,13.495370370370367)" style="display: inline;">Pvalb</text><rect class="node-click-target" x="-5" y="-5" width="10" height="31.990740740740733" style="fill: none; visibility: hidden; pointer-events: all;"/></g><g class="node" transform="translate(239,164.88888888888889)"><title>Pyr</title><line x1="0" x2="0" y1="0" y2="73.61111111111111" style="display: inline; stroke: rgb(0, 0, 0);"/><rect class="node-body" width="1" height="73.61111111111111" style="fill: none;"/><text class="node-value" dy=".35em" text-anchor="middle" transform="translate(0.5,36.80555555555556) rotate(-90)" style="display: none;"/><text class="node-title" dy=".35em" text-anchor="start" transform="translate(5,36.80555555555556)" style="display: inline;">Pyr</text><rect class="node-click-target" x="-5" y="-5" width="10" height="78.61111111111111" style="fill: none; visibility: hidden; pointer-events: all;"/></g></g><g class="slice-titles"/></g></svg>