<?xml version="1.0" standalone="no"?><!DOCTYPE svg PUBLIC "-//W3C//DTD SVG 1.1//EN" "http://www.w3.org/Graphics/SVG/1.1/DTD/svg11.dtd"><svg xmlns="http://www.w3.org/2000/svg" width="550" height="350" viewBox="0 0 550 350"><g class="sankey" transform="translate(150,10)"><g class="groups"><g class="group" transform="translate(0,33)" style="display: inline;"><rect x="-10" y="-20" width="21" height="294" style="fill: rgb(238, 238, 238); stroke: rgb(187, 187, 187); stroke-width: 0.5;"/><text x="-10" y="-25" style="fill: rgb(153, 153, 153);">True</text></g><g class="group" transform="translate(249,33)" style="display: inline;"><rect x="-10" y="-20" width="21" height="294" style="fill: rgb(238, 238, 238); stroke: rgb(187, 187, 187); stroke-width: 0.5;"/><text x="-10" y="-25" style="fill: rgb(153, 153, 153);">Predicted</text></g></g><g class="links"><g class="link" style="opacity: 0.8;"><path d="M1,33 A0 0 0 0 0 1,33 L249,33 A0 0 0 0 0 249,33 L249,36.17307692307692 A0 0 0 0 0 249,36.17307692307692 L1,36.17307692307692 A0 0 0 0 0 1,36.17307692307692 Z" style="fill: rgb(0, 0, 185);"/><title>Ndnf-IRES2-dgCre → Ndnf-IRES2-dgCre
Ndnf-IRES2-dgCre
1.00</title><text class="label" dy="0.35em" x="5" y="34.58653846153846"/></g><g class="link" style="opacity: 0.8;"><path d="M1,82.07692307692308 A117.4792622870088 117.4792622870088 0.4277689535228424 0 1 49.73531118814675,92.66256295878412 L201.58101382326066,161.892582523999 A114.30618536393186 114.30618536393186 0.4277689535228424 0 0 249,172.19230769230768 L249,175.36538461538458 A117.4792622870088 117.4792622870088 0.4277689535228424 0 1 200.26468881185326,164.77974473352356 L48.41898617673934,95.54972516830867 A114.30618536393186 114.30618536393186 0.4277689535228424 0 0 1,85.25000000000001 Z" style="fill: rgb(0, 164, 187);"/><title>Pvalb-IRES-Cre → Htr3a-Cre_NO152
Pvalb-IRES-Cre
1.00</title><text class="label" dy="0.35em" x="5" y="83.66346153846155"/></g><g class="link" style="opacity: 0.8;"><path d="M1,135.80769230769232 A105.95297926595696 105.95297926595696 0.4690330461358956 0 0 48.893286150303766,124.36538416969543 L199.67240702692737,47.958058992009484 A109.12605618903389 109.12605618903389 0.4690330461358956 0 1 249,36.17307692307692 L249,39.34615384615384 A105.95297926595696 105.95297926595696 0.4690330461358956 0 0 201.10671384969623,50.788461984150715 L50.32759297307261,127.19578716183668 A109.12605618903389 109.12605618903389 0.4690330461358956 0 1 1,138.98076923076923 Z" style="fill: rgb(0, 188, 0);"/><title>Oxtr-T2A-Cre → Ndnf-IRES2-dgCre
Oxtr-T2A-Cre
1.00</title><text class="label" dy="0.35em" x="5" y="137.39423076923077"/></g><g class="link" style="opacity: 0.8;"><path d="M1,138.98076923076925 A160.98812419974385 160.98812419974385 0.29141797501353794 0 0 47.25361114597089,132.19309765458115 L201.83472989243913,85.82530277875686 A164.16120112282076 164.16120112282076 0.29141797501353794 0 1 249,78.90384615384615 L249,82.07692307692308 A160.98812419974385 160.98812419974385 0.29141797501353794 0 0 202.7463888540291,88.86459465311115 L48.16527010756086,135.23238952893547 A164.16120112282076 164.16120112282076 0.29141797501353794 0 1 1,142.15384615384616 Z" style="fill: rgb(0, 188, 0);"/><title>Oxtr-T2A-Cre → Pvalb-IRES-Cre
Oxtr-T2A-Cre
1.00</title><text class="label" dy="0.35em" x="5" y="140.5673076923077"/></g><g class="link" style="opacity: 0.8;"><path d="M1,159.5 A93.21810056141041 93.21810056141041 0.5544096238596947 0 0 50.073871788966855,145.53699000012554 L198.25568900274845,53.78445463762842 A96.39117748448734 96.39117748448734 0.5544096238596947 0 1 249,39.34615384615384 L249,42.51923076923076 A93.21810056141041 93.21810056141041 0.5544096238596947 0 0 199.92612821103313,56.48224076910521 L51.74431099725156,148.23477613160233 A96.39117748448734 96.39117748448734 0.5544096238596947 0 1 1,162.6730769230769 Z" style="fill: rgb(0, 244, 0);"/><title>Htr3a-Cre_NO152 → Ndnf-IRES2-dgCre
Htr3a-Cre_NO152
1.00</title><text class="label" dy="0.35em" x="5" y="161.08653846153845"/></g><g class="link" style="opacity: 0.8;"><path d="M1,162.67307692307693 A124.96988533120421 124.96988533120421 0.38552112479927425 0 0 47.993933539975686,153.50061146871917 L200.81285606661544,91.48228414756315 A128.14296225428114 128.14296225428114 0.38552112479927425 0 1 249,82.07692307692307 L249,85.25 A124.96988533120421 124.96988533120421 0.38552112479927425 0 0 202.00606646002433,94.42246545435773 L49.18714393338456,156.44079277551378 A128.14296225428114 128.14296225428114 0.38552112479927425 0 1 1,165.84615384615384 Z" style="fill: rgb(0, 244, 0);"/><title>Htr3a-Cre_NO152 → Pvalb-IRES-Cre
Htr3a-Cre_NO152
1.00</title><text class="label" dy="0.35em" x="5" y="164.2596153846154"/></g><g class="link" style="opacity: 0.8;"><path d="M1,195.8846153846154 A153.81879199232134 153.81879199232134 0.3130969030361137 0 1 48.37718061471178,203.36262862071308 L202.6001475552851,253.29163283799812 A150.64571506924443 150.64571506924443 0.3130969030361137 0 0 249,260.61538461538464 L249,263.78846153846155 A153.81879199232134 153.81879199232134 0.3130969030361137 0 1 201.6228193852882,256.31044830236385 L47.39985244471489,206.3814440850788 A150.64571506924443 150.64571506924443 0.3130969030361137 0 0 1,199.0576923076923 Z" style="fill: rgb(255, 201, 0);"/><title>Scnn1a-Tg2-Cre → Rbp4-Cre_KL100
Scnn1a-Tg2-Cre
1.00</title><text class="label" dy="0.35em" x="5" y="197.47115384615384"/></g><g class="link" style="opacity: 0.8;"><path d="M1,192.71153846153845 A165.1853830951657 165.1853830951657 0.28348982792079247 0 0 47.20365281801776,186.11818938627152 L201.90881257225078,141.04692502791366 A168.3584600182426 168.3584600182426 0.28348982792079247 0 1 249,134.32692307692307 L249,137.49999999999997 A165.1853830951657 165.1853830951657 0.28348982792079247 0 0 202.79634718198224,144.0933490752669 L48.09118742774922,189.16461343362477 A168.3584600182426 168.3584600182426 0.28348982792079247 0 1 1,195.88461538461536 Z" style="fill: rgb(255, 201, 0);"/><title>Scnn1a-Tg2-Cre → Sst-IRES-Cre
Scnn1a-Tg2-Cre
1.00</title><text class="label" dy="0.35em" x="5" y="194.2980769230769"/></g><g class="link" style="opacity: 0.8;"><path d="M1,210.0576923076923 A536.0412331570861 536.0412331570861 0.08555871036411422 0 1 46.80706199283432,212.0184851599923 L203.46409127361753,225.45466014476213 A532.8681562340092 532.8681562340092 0.08555871036411422 0 0 249,227.40384615384616 L249,230.57692307692307 A536.0412331570861 536.0412331570861 0.08555871036411422 0 1 203.19293800716568,228.61613022462305 L46.53590872638247,215.17995523985323 A532.8681562340092 532.8681562340092 0.08555871036411422 0 0 1,213.2307692307692 Z" style="fill: rgb(255, 201, 0);"/><title>Scnn1a-Tg3-Cre → Nr5a1-Cre
Scnn1a-Tg3-Cre
1.00</title><text class="label" dy="0.35em" x="5" y="211.64423076923075"/></g><g class="link" style="opacity: 0.8;"><path d="M1,213.23076923076923 A191.64687545717874 191.64687545717874 0.2465299769076419 0 1 47.769566351060774,219.02519639674816 L203.00479238208763,258.08997208646286 A188.47379853410183 188.47379853410183 0.2465299769076419 0 0 249,263.78846153846155 L249,266.96153846153845 A191.64687545717874 191.64687545717874 0.2465299769076419 0 1 202.23043364893923,261.16711129555955 L46.9952076179124,222.10233560584484 A188.47379853410183 188.47379853410183 0.2465299769076419 0 0 1,216.40384615384613 Z" style="fill: rgb(255, 201, 0);"/><title>Scnn1a-Tg3-Cre → Rbp4-Cre_KL100
Scnn1a-Tg3-Cre
1.00</title><text class="label" dy="0.35em" x="5" y="214.81730769230768"/></g><g class="link" style="opacity: 0.8;"><path d="M1,227.40384615384613 A295.83884462852603 295.83884462852603 0.15491427988975648 0 0 46.64657472143538,223.8611051725319 L202.86383408560292,199.4653547216437 A299.01192155160294 299.01192155160294 0.15491427988975648 0 1 249,195.8846153846154 L249,199.0576923076923 A295.83884462852603 295.83884462852603 0.15491427988975648 0 0 203.35342527856463,202.60043328900653 L47.13616591439709,226.99618373989472 A299.01192155160294 299.01192155160294 0.15491427988975648 0 1 1,230.57692307692304 Z" style="fill: rgb(255, 201, 0);"/><title>Nr5a1-Cre → Scnn1a-Tg2-Cre
Nr5a1-Cre
1.00</title><text class="label" dy="0.35em" x="5" y="228.99038461538458"/></g><g class="link" style="opacity: 0.8;"><path d="M1,230.57692307692307 A451.09884381082884 451.09884381082884 0.10114699638575564 0 0 46.54953294122475,228.27135788811506 L203.13006683204947,212.37947508560663 A454.27192073390574 454.27192073390574 0.10114699638575564 0 1 249,210.05769230769232 L249,213.23076923076923 A451.09884381082884 451.09884381082884 0.10114699638575564 0 0 203.45046705877525,215.53633441957723 L46.86993316795054,231.42821722208566 A454.27192073390574 454.27192073390574 0.10114699638575564 0 1 1,233.74999999999997 Z" style="fill: rgb(255, 201, 0);"/><title>Nr5a1-Cre → Scnn1a-Tg3-Cre
Nr5a1-Cre
1.00</title><text class="label" dy="0.35em" x="5" y="232.16346153846152"/></g><g class="link" style="opacity: 0.8;"><path d="M1,263.7884615384615 A532.8681562340118 532.8681562340118 0.08555871036411311 0 0 46.53590872638211,261.8392755293775 L203.19293800716605,248.40310054460767 A536.0412331570888 536.0412331570888 0.08555871036411311 0 1 249,246.4423076923077 L249,249.6153846153846 A532.8681562340118 532.8681562340118 0.08555871036411311 0 0 203.4640912736179,251.5645706244686 L46.807061992833944,265.00074560923844 A536.0412331570888 536.0412331570888 0.08555871036411311 0 1 1,266.9615384615384 Z" style="fill: rgb(215, 0, 0);"/><title>Rbp4-Cre_KL100 → Nr5a1-Cre
Rbp4-Cre_KL100
1.00</title><text class="label" dy="0.35em" x="5" y="265.37499999999994"/></g><g class="link" style="opacity: 0.8;"><path d="M1,260.6153846153846 A200.21725774225794 200.21725774225794 0.23141789902344678 0 0 46.92140067684203,255.27802644644504 L202.35082920780343,218.6527147536014 A203.39033466533485 203.39033466533485 0.23141789902344678 0 1 249,213.23076923076925 L249,216.40384615384616 A200.21725774225794 200.21725774225794 0.23141789902344678 0 0 203.07859932315796,221.74120432278568 L47.64917079219659,258.3665160156293 A203.39033466533485 203.39033466533485 0.23141789902344678 0 1 1,263.7884615384615 Z" style="fill: rgb(215, 0, 0);"/><title>Rbp4-Cre_KL100 → Scnn1a-Tg3-Cre
Rbp4-Cre_KL100
1.00</title><text class="label" dy="0.35em" x="5" y="262.20192307692304"/></g><g class="link" style="opacity: 0.8;"><path d="M1,293.82692307692304 A0 0 0 0 1 1,293.82692307692304 L249,293.8269230769231 A0 0 0 0 0 249,293.8269230769231 L249,297 A0 0 0 0 1 249,297 L1,296.99999999999994 A0 0 0 0 0 1,296.99999999999994 Z" style="fill: rgb(215, 0, 0);"/><title>Ntsr1-Cre_GN220 → Ntsr1-Cre_GN220
Ntsr1-Cre_GN220
1.00</title><text class="label" dy="0.35em" x="5" y="295.4134615384615"/></g><g class="link" style="opacity: 0.8;"><path d="M1,290.65384615384613 A838.7543706293706 838.7543706293706 0.05430720933971811 0 0 46.5280223933101,289.4172923061998 L203.29974134507597,280.89507798662794 A841.9274475524475 841.9274475524475 0.05430720933971811 0 1 249,279.65384615384613 L249,282.82692307692304 A838.7543706293706 838.7543706293706 0.05430720933971811 0 0 203.4719776066899,284.0634769245694 L46.70025865492402,292.58569124414123 A841.9274475524475 841.9274475524475 0.05430720933971811 0 1 1,293.82692307692304 Z" style="fill: rgb(215, 0, 0);"/><title>Ntsr1-Cre_GN220 → Rbp4-Cre_KL100
Ntsr1-Cre_GN220
1.00</title><text class="label" dy="0.35em" x="5" y="292.2403846153846"/></g><g class="link" style="opacity: 0.8;"><path d="M1,36.17307692307692 A93.76910742194183 93.76910742194183 0.5922872478593494 0 1 53.34755440351451,52.14514677494956 L200.19525028822426,150.95504994680323 A87.42295357578799 87.42295357578799 0.5922872478593494 0 0 249,165.84615384615384 L249,172.1923076923077 A93.76910742194183 93.76910742194183 0.5922872478593494 0 1 196.6524455964855,156.22023784043506 L49.80474971177574,57.41033466858138 A87.42295357578799 87.42295357578799 0.5922872478593494 0 0 1,42.51923076923076 Z" style="fill: rgb(0, 0, 185);"/><title>Ndnf-IRES2-dgCre → Htr3a-Cre_NO152
Ndnf-IRES2-dgCre
2.00</title><text class="label" dy="0.35em" x="5" y="39.34615384615384"/></g><g class="link" style="opacity: 0.8;"><path d="M1,96.25 A389.77297702297705 389.77297702297705 0.11670396659364113 0 0 46.384866300699514,93.59869316382844 L202.876192416015,75.25216683908023 A396.11913086913086 396.11913086913086 0.11670396659364113 0 1 249,72.5576923076923 L249,78.90384615384615 A389.77297702297705 389.77297702297705 0.11670396659364113 0 0 203.6151336993005,81.5551529900177 L47.123807583985,99.90167931476591 A396.11913086913086 396.11913086913086 0.11670396659364113 0 1 1,102.59615384615384 Z" style="fill: rgb(0, 165, 93);"/><title>Sst-IRES-Cre → Pvalb-IRES-Cre
Sst-IRES-Cre
2.00</title><text class="label" dy="0.35em" x="5" y="99.42307692307692"/></g><g class="link" style="opacity: 0.8;"><path d="M1,142.1538461538462 A1003.1730769230769 1003.1730769230769 0.028965467368681885 0 1 30.053314013548487,142.57464698469514 L220.13047959566214,148.08186118916794 A996.8269230769231 996.8269230769231 0.028965467368681885 0 0 249,148.5 L249,154.84615384615387 A1003.1730769230769 1003.1730769230769 0.028965467368681885 0 1 219.9466859864515,154.42535301530492 L29.869520404337884,148.91813881083212 A996.8269230769231 996.8269230769231 0.028965467368681885 0 0 1,148.50000000000006 Z" style="fill: rgb(0, 188, 0);"/><title>Oxtr-T2A-Cre → Oxtr-T2A-Cre
Oxtr-T2A-Cre
2.00</title><text class="label" dy="0.35em" x="5" y="145.32692307692312"/></g><g class="link" style="opacity: 0.8;"><path d="M1,165.84615384615387 A246.14878257217623 246.14878257217623 0.18568780901705928 0 0 46.44461896526336,161.6147327197129 L202.3837378504002,132.32128392726833 A252.4949364183301 252.4949364183301 0.18568780901705928 0 1 249,127.98076923076924 L249,134.3269230769231 A246.14878257217623 246.14878257217623 0.18568780901705928 0 0 203.55538103473666,138.55834420336407 L47.61626214959979,167.85179299580864 A252.4949364183301 252.4949364183301 0.18568780901705928 0 1 1,172.19230769230774 Z" style="fill: rgb(0, 244, 0);"/><title>Htr3a-Cre_NO152 → Sst-IRES-Cre
Htr3a-Cre_NO152
2.00</title><text class="label" dy="0.35em" x="5" y="169.0192307692308"/></g><g class="link" style="opacity: 0.8;"><path d="M1,72.5576923076923 A397.7056693306693 397.7056693306693 0.11670396659364113 0 1 47.30854290480637,75.26295876288432 L203.79986902012186,93.60948508763254 A388.1864385614386 388.1864385614386 0.11670396659364113 0 0 249,96.25 L249,105.76923076923077 A397.7056693306693 397.7056693306693 0.11670396659364113 0 1 202.6914570951936,103.06396431403876 L46.20013097987814,84.71743798929054 A388.1864385614386 388.1864385614386 0.11670396659364113 0 0 1,82.07692307692308 Z" style="fill: rgb(0, 164, 187);"/><title>Pvalb-IRES-Cre → Sst-IRES-Cre
Pvalb-IRES-Cre
3.00</title><text class="label" dy="0.35em" x="5" y="77.3173076923077"/></g><g class="link" style="opacity: 0.8;"><path d="M1,172.1923076923077 A1004.7596153846154 1004.7596153846154 0.01353229443626991 0 1 14.59628797870155,172.28430358227632 L235.53252512335038,175.2742603071287 A995.2403846153846 995.2403846153846 0.01353229443626991 0 0 249,175.3653846153846 L249,184.8846153846154 A1004.7596153846154 1004.7596153846154 0.01353229443626991 0 1 235.40371202129845,184.79261949464677 L14.46747487664964,181.80266276979438 A995.2403846153846 995.2403846153846 0.01353229443626991 0 0 1,181.71153846153848 Z" style="fill: rgb(0, 244, 0);"/><title>Htr3a-Cre_NO152 → Htr3a-Cre_NO152
Htr3a-Cre_NO152
3.00</title><text class="label" dy="0.35em" x="5" y="176.9519230769231"/></g><g class="link" style="opacity: 0.8;"><path d="M1,266.9615384615384 A0 0 0 0 1 1,266.9615384615384 L249,266.96153846153845 A0 0 0 0 0 249,266.96153846153845 L249,279.6538461538462 A0 0 0 0 1 249,279.6538461538462 L1,279.65384615384613 A0 0 0 0 0 1,279.65384615384613 Z" style="fill: rgb(215, 0, 0);"/><title>Rbp4-Cre_KL100 → Rbp4-Cre_KL100
Rbp4-Cre_KL100
4.00</title><text class="label" dy="0.35em" x="5" y="273.30769230769226"/></g><g class="link" style="opacity: 0.8;"><path d="M1,233.75 A992.0673076923077 992.0673076923077 0.01353229443626991 0 0 14.424537175965668,233.65916621898168 L235.3607743206145,230.6692094941293 A1007.9326923076923 1007.9326923076923 0.01353229443626991 0 1 249,230.5769230769231 L249,246.44230769230774 A992.0673076923077 992.0673076923077 0.01353229443626991 0 0 235.57546282403433,246.53314147332605 L14.639225679385522,249.52309819817845 A1007.9326923076923 1007.9326923076923 0.01353229443626991 0 1 1,249.61538461538464 Z" style="fill: rgb(255, 201, 0);"/><title>Nr5a1-Cre → Nr5a1-Cre
Nr5a1-Cre
5.00</title><text class="label" dy="0.35em" x="5" y="241.68269230769232"/></g><g class="link" style="opacity: 0.8;"><path d="M1,53.519230769230774 A0 0 0 0 0 1,53.519230769230774 L249,53.519230769230774 A0 0 0 0 0 249,53.519230769230774 L249,72.5576923076923 A0 0 0 0 0 249,72.5576923076923 L1,72.5576923076923 A0 0 0 0 0 1,72.5576923076923 Z" style="fill: rgb(0, 164, 187);"/><title>Pvalb-IRES-Cre → Pvalb-IRES-Cre
Pvalb-IRES-Cre
6.00</title><text class="label" dy="0.35em" x="5" y="63.03846153846154"/></g><g class="link" style="opacity: 0.8;"><path d="M1,102.59615384615384 A1011.1057692307693 1011.1057692307693 0.01353229443626991 0 1 14.682163380069492,102.68873079059757 L235.6184005247183,105.67868751545 A988.8942307692307 988.8942307692307 0.01353229443626991 0 0 249,105.76923076923077 L249,127.98076923076923 A1011.1057692307693 1011.1057692307693 0.01353229443626991 0 1 235.31783661993052,127.88819228632549 L14.381599475281698,124.89823556147307 A988.8942307692307 988.8942307692307 0.01353229443626991 0 0 1,124.80769230769229 Z" style="fill: rgb(0, 165, 93);"/><title>Sst-IRES-Cre → Sst-IRES-Cre
Sst-IRES-Cre
7.00</title><text class="label" dy="0.35em" x="5" y="113.70192307692307"/></g></g><g class="nodes"><g class="node" transform="translate(0,33)"><title>Ndnf-IRES2-dgCre</title><line x1="0" x2="0" y1="0" y2="9.519230769230766" style="display: inline; stroke: rgb(0, 0, 0);"/><rect class="node-body" width="1" height="9.519230769230766" style="fill: none;"/><text class="node-value" dy=".35em" text-anchor="middle" transform="translate(0.5,4.759615384615383) rotate(-90)" style="display: none;"/><text class="node-title" dy=".35em" text-anchor="end" transform="translate(-4,4.759615384615383)" style="display: inline;">Ndnf-IRES2-dgCre</text><rect class="node-click-target" x="-5" y="-5" width="10" height="14.519230769230766" style="fill: none; visibility: hidden; pointer-events: all;"/></g><g class="node" transform="translate(0,53.519230769230774)"><title>Pvalb-IRES-Cre</title><line x1="0" x2="0" y1="0" y2="31.730769230769226" style="display: inline; stroke: rgb(0, 0, 0);"/><rect class="node-body" width="1" height="31.730769230769226" style="fill: none;"/><text class="node-value" dy=".35em" text-anchor="middle" transform="translate(0.5,15.865384615384613) rotate(-90)" style="display: none;"/><text class="node-title" dy=".35em" text-anchor="end" transform="translate(-4,15.865384615384613)" style="display: inline;">Pvalb-IRES-Cre</text><rect class="node-click-target" x="-5" y="-5" width="10" height="36.730769230769226" style="fill: none; visibility: hidden; pointer-events: all;"/></g><g class="node" transform="translate(0,96.25)"><title>Sst-IRES-Cre</title><line x1="0" x2="0" y1="0" y2="28.557692307692307" style="display: inline; stroke: rgb(0, 0, 0);"/><rect class="node-body" width="1" height="28.557692307692307" style="fill: none;"/><text class="node-value" dy=".35em" text-anchor="middle" transform="translate(0.5,14.278846153846153) rotate(-90)" style="display: none;"/><text class="node-title" dy=".35em" text-anchor="end" transform="translate(-4,14.278846153846153)" style="display: inline;">Sst-IRES-Cre</text><rect class="node-click-target" x="-5" y="-5" width="10" height="33.55769230769231" style="fill: none; visibility: hidden; pointer-events: all;"/></g><g class="node" transform="translate(0,135.80769230769232)"><title>Oxtr-T2A-Cre</title><line x1="0" x2="0" y1="0" y2="12.69230769230768" style="display: inline; stroke: rgb(0, 0, 0);"/><rect class="node-body" width="1" height="12.69230769230768" style="fill: none;"/><text class="node-value" dy=".35em" text-anchor="middle" transform="translate(0.5,6.34615384615384) rotate(-90)" style="display: none;"/><text class="node-title" dy=".35em" text-anchor="end" transform="translate(-4,6.34615384615384)" style="display: inline;">Oxtr-T2A-Cre</text><rect class="node-click-target" x="-5" y="-5" width="10" height="17.69230769230768" style="fill: none; visibility: hidden; pointer-events: all;"/></g><g class="node" transform="translate(0,159.5)"><title>Htr3a-Cre_NO152</title><line x1="0" x2="0" y1="0" y2="22.211538461538453" style="display: inline; stroke: rgb(0, 0, 0);"/><rect class="node-body" width="1" height="22.211538461538453" style="fill: none;"/><text class="node-value" dy=".35em" text-anchor="middle" transform="translate(0.5,11.105769230769226) rotate(-90)" style="display: none;"/><text class="node-title" dy=".35em" text-anchor="end" transform="translate(-4,11.105769230769226)" style="display: inline;">Htr3a-Cre_NO152</text><rect class="node-click-target" x="-5" y="-5" width="10" height="27.211538461538453" style="fill: none; visibility: hidden; pointer-events: all;"/></g><g class="node" transform="translate(0,192.71153846153845)"><title>Scnn1a-Tg2-Cre</title><line x1="0" x2="0" y1="0" y2="6.34615384615384" style="display: inline; stroke: rgb(0, 0, 0);"/><rect class="node-body" width="1" height="6.34615384615384" style="fill: none;"/><text class="node-value" dy=".35em" text-anchor="middle" transform="translate(0.5,3.17307692307692) rotate(-90)" style="display: none;"/><text class="node-title" dy=".35em" text-anchor="end" transform="translate(-4,3.17307692307692)" style="display: inline;">Scnn1a-Tg2-Cre</text><rect class="node-click-target" x="-5" y="-5" width="10" height="11.34615384615384" style="fill: none; visibility: hidden; pointer-events: all;"/></g><g class="node" transform="translate(0,210.0576923076923)"><title>Scnn1a-Tg3-Cre</title><line x1="0" x2="0" y1="0" y2="6.34615384615384" style="display: inline; stroke: rgb(0, 0, 0);"/><rect class="node-body" width="1" height="6.34615384615384" style="fill: none;"/><text class="node-value" dy=".35em" text-anchor="middle" transform="translate(0.5,3.17307692307692) rotate(-90)" style="display: none;"/><text class="node-title" dy=".35em" text-anchor="end" transform="translate(-4,3.17307692307692)" style="display: inline;">Scnn1a-Tg3-Cre</text><rect class="node-click-target" x="-5" y="-5" width="10" height="11.34615384615384" style="fill: none; visibility: hidden; pointer-events: all;"/></g><g class="node" transform="translate(0,227.40384615384613)"><title>Nr5a1-Cre</title><line x1="0" x2="0" y1="0" y2="22.211538461538453" style="display: inline; stroke: rgb(0, 0, 0);"/><rect class="node-body" width="1" height="22.211538461538453" style="fill: none;"/><text class="node-value" dy=".35em" text-anchor="middle" transform="translate(0.5,11.105769230769226) rotate(-90)" style="display: none;"/><text class="node-title" dy=".35em" text-anchor="end" transform="translate(-4,11.105769230769226)" style="display: inline;">Nr5a1-Cre</text><rect class="node-click-target" x="-5" y="-5" width="10" height="27.211538461538453" style="fill: none; visibility: hidden; pointer-events: all;"/></g><g class="node" transform="translate(0,260.6153846153846)"><title>Rbp4-Cre_KL100</title><line x1="0" x2="0" y1="0" y2="19.038461538461547" style="display: inline; stroke: rgb(0, 0, 0);"/><rect class="node-body" width="1" height="19.038461538461547" style="fill: none;"/><text class="node-value" dy=".35em" text-anchor="middle" transform="translate(0.5,9.519230769230774) rotate(-90)" style="display: none;"/><text class="node-title" dy=".35em" text-anchor="end" transform="translate(-4,9.519230769230774)" style="display: inline;">Rbp4-Cre_KL100</text><rect class="node-click-target" x="-5" y="-5" width="10" height="24.038461538461547" style="fill: none; visibility: hidden; pointer-events: all;"/></g><g class="node" transform="translate(0,290.65384615384613)"><title>Ntsr1-Cre_GN220</title><line x1="0" x2="0" y1="0" y2="6.346153846153868" style="display: inline; stroke: rgb(0, 0, 0);"/><rect class="node-body" width="1" height="6.346153846153868" style="fill: none;"/><text class="node-value" dy=".35em" text-anchor="middle" transform="translate(0.5,3.173076923076934) rotate(-90)" style="display: none;"/><text class="node-title" dy=".35em" text-anchor="end" transform="translate(-4,3.173076923076934)" style="display: inline;">Ntsr1-Cre_GN220</text><rect class="node-click-target" x="-5" y="-5" width="10" height="11.346153846153868" style="fill: none; visibility: hidden; pointer-events: all;"/></g><g class="node" transform="translate(249,33)"><title>Ndnf-IRES2-dgCre</title><line x1="0" x2="0" y1="0" y2="9.519230769230766" style="display: inline; stroke: rgb(0, 0, 0);"/><rect class="node-body" width="1" height="9.519230769230766" style="fill: none;"/><text class="node-value" dy=".35em" text-anchor="middle" transform="translate(0.5,4.759615384615383) rotate(-90)" style="display: none;"/><text class="node-title" dy=".35em" text-anchor="start" transform="translate(5,4.759615384615383)" style="display: inline;">Ndnf-IRES2-dgCre</text><rect class="node-click-target" x="-5" y="-5" width="10" height="14.519230769230766" style="fill: none; visibility: hidden; pointer-events: all;"/></g><g class="node" transform="translate(249,53.519230769230774)"><title>Pvalb-IRES-Cre</title><line x1="0" x2="0" y1="0" y2="31.730769230769226" style="display: inline; stroke: rgb(0, 0, 0);"/><rect class="node-body" width="1" height="31.730769230769226" style="fill: none;"/><text class="node-value" dy=".35em" text-anchor="middle" transform="translate(0.5,15.865384615384613) rotate(-90)" style="display: none;"/><text class="node-title" dy=".35em" text-anchor="start" transform="translate(5,15.865384615384613)" style="display: inline;">Pvalb-IRES-Cre</text><rect class="node-click-target" x="-5" y="-5" width="10" height="36.730769230769226" style="fill: none; visibility: hidden; pointer-events: all;"/></g><g class="node" transform="translate(249,96.25)"><title>Sst-IRES-Cre</title><line x1="0" x2="0" y1="0" y2="41.25" style="display: inline; stroke: rgb(0, 0, 0);"/><rect class="node-body" width="1" height="41.25" style="fill: none;"/><text class="node-value" dy=".35em" text-anchor="middle" transform="translate(0.5,20.625) rotate(-90)" style="display: none;"/><text class="node-title" dy=".35em" text-anchor="start" transform="translate(5,20.625)" style="display: inline;">Sst-IRES-Cre</text><rect class="node-click-target" x="-5" y="-5" width="10" height="46.25" style="fill: none; visibility: hidden; pointer-events: all;"/></g><g class="node" transform="translate(249,148.5)"><title>Oxtr-T2A-Cre</title><line x1="0" x2="0" y1="0" y2="6.34615384615384" style="display: inline; stroke: rgb(0, 0, 0);"/><rect class="node-body" width="1" height="6.34615384615384" style="fill: none;"/><text class="node-value" dy=".35em" text-anchor="middle" transform="translate(0.5,3.17307692307692) rotate(-90)" style="display: none;"/><text class="node-title" dy=".35em" text-anchor="start" transform="translate(5,3.17307692307692)" style="display: inline;">Oxtr-T2A-Cre</text><rect class="node-click-target" x="-5" y="-5" width="10" height="11.34615384615384" style="fill: none; visibility: hidden; pointer-events: all;"/></g><g class="node" transform="translate(249,165.84615384615384)"><title>Htr3a-Cre_NO152</title><line x1="0" x2="0" y1="0" y2="19.038461538461547" style="display: inline; stroke: rgb(0, 0, 0);"/><rect class="node-body" width="1" height="19.038461538461547" style="fill: none;"/><text class="node-value" dy=".35em" text-anchor="middle" transform="translate(0.5,9.519230769230774) rotate(-90)" style="display: none;"/><text class="node-title" dy=".35em" text-anchor="start" transform="translate(5,9.519230769230774)" style="display: inline;">Htr3a-Cre_NO152</text><rect class="node-click-target" x="-5" y="-5" width="10" height="24.038461538461547" style="fill: none; visibility: hidden; pointer-events: all;"/></g><g class="node" transform="translate(249,195.8846153846154)"><title>Scnn1a-Tg2-Cre</title><line x1="0" x2="0" y1="0" y2="3.173076923076934" style="display: inline; stroke: rgb(0, 0, 0);"/><rect class="node-body" width="1" height="3.173076923076934" style="fill: none;"/><text class="node-value" dy=".35em" text-anchor="middle" transform="translate(0.5,1.586538461538467) rotate(-90)" style="display: none;"/><text class="node-title" dy=".35em" text-anchor="start" transform="translate(5,1.586538461538467)" style="display: inline;">Scnn1a-Tg2-Cre</text><rect class="node-click-target" x="-5" y="-5" width="10" height="8.173076923076934" style="fill: none; visibility: hidden; pointer-events: all;"/></g><g class="node" transform="translate(249,210.05769230769232)"><title>Scnn1a-Tg3-Cre</title><line x1="0" x2="0" y1="0" y2="6.34615384615384" style="display: inline; stroke: rgb(0, 0, 0);"/><rect class="node-body" width="1" height="6.34615384615384" style="fill: none;"/><text class="node-value" dy=".35em" text-anchor="middle" transform="translate(0.5,3.17307692307692) rotate(-90)" style="display: none;"/><text class="node-title" dy=".35em" text-anchor="start" transform="translate(5,3.17307692307692)" style="display: inline;">Scnn1a-Tg3-Cre</text><rect class="node-click-target" x="-5" y="-5" width="10" height="11.34615384615384" style="fill: none; visibility: hidden; pointer-events: all;"/></g><g class="node" transform="translate(249,227.40384615384616)"><title>Nr5a1-Cre</title><line x1="0" x2="0" y1="0" y2="22.211538461538453" style="display: inline; stroke: rgb(0, 0, 0);"/><rect class="node-body" width="1" height="22.211538461538453" style="fill: none;"/><text class="node-value" dy=".35em" text-anchor="middle" transform="translate(0.5,11.105769230769226) rotate(-90)" style="display: none;"/><text class="node-title" dy=".35em" text-anchor="start" transform="translate(5,11.105769230769226)" style="display: inline;">Nr5a1-Cre</text><rect class="node-click-target" x="-5" y="-5" width="10" height="27.211538461538453" style="fill: none; visibility: hidden; pointer-events: all;"/></g><g class="node" transform="translate(249,260.61538461538464)"><title>Rbp4-Cre_KL100</title><line x1="0" x2="0" y1="0" y2="22.211538461538453" style="display: inline; stroke: rgb(0, 0, 0);"/><rect class="node-body" width="1" height="22.211538461538453" style="fill: none;"/><text class="node-value" dy=".35em" text-anchor="middle" transform="translate(0.5,11.105769230769226) rotate(-90)" style="display: none;"/><text class="node-title" dy=".35em" text-anchor="start" transform="translate(5,11.105769230769226)" style="display: inline;">Rbp4-Cre_KL100</text><rect class="node-click-target" x="-5" y="-5" width="10" height="27.211538461538453" style="fill: none; visibility: hidden; pointer-events: all;"/></g><g class="node" transform="translate(249,293.8269230769231)"><title>Ntsr1-Cre_GN220</title><line x1="0" x2="0" y1="0" y2="3.1730769230769056" style="display: inline; stroke: rgb(0, 0, 0);"/><rect class="node-body" width="1" height="3.1730769230769056" style="fill: none;"/><text class="node-value" dy=".35em" text-anchor="middle" transform="translate(0.5,1.5865384615384528) rotate(-90)" style="display: none;"/><text class="node-title" dy=".35em" text-anchor="start" transform="translate(5,1.5865384615384528)" style="display: inline;">Ntsr1-Cre_GN220</text><rect class="node-click-target" x="-5" y="-5" width="10" height="8.173076923076906" style="fill: none; visibility: hidden; pointer-events: all;"/></g></g><g class="slice-titles"/></g></svg>